<mxfile host="app.diagrams.net" agent="Mozilla/5.0 (Windows NT 10.0; Win64; x64) AppleWebKit/537.36 (KHTML, like Gecko) Chrome/141.0.0.0 Safari/537.36 Edg/141.0.0.0" version="28.2.5">
  <diagram name="第 1 页" id="2xaBA7cNtwCPa4PJMOQ9">
    <mxGraphModel dx="1418" dy="756" grid="1" gridSize="10" guides="1" tooltips="1" connect="1" arrows="1" fold="1" page="1" pageScale="1" pageWidth="827" pageHeight="1169" math="0" shadow="0">
      <root>
        <mxCell id="0" />
        <mxCell id="1" parent="0" />
        <mxCell id="3vwzYwzwPNA0wWS0ZiA6-3" value="" style="edgeStyle=orthogonalEdgeStyle;rounded=0;orthogonalLoop=1;jettySize=auto;html=1;" edge="1" parent="1" source="3vwzYwzwPNA0wWS0ZiA6-1" target="3vwzYwzwPNA0wWS0ZiA6-2">
          <mxGeometry relative="1" as="geometry" />
        </mxCell>
        <mxCell id="3vwzYwzwPNA0wWS0ZiA6-1" value="" style="triangle;whiteSpace=wrap;html=1;" vertex="1" parent="1">
          <mxGeometry x="130" y="280" width="60" height="80" as="geometry" />
        </mxCell>
        <mxCell id="3vwzYwzwPNA0wWS0ZiA6-5" value="" style="edgeStyle=orthogonalEdgeStyle;rounded=0;orthogonalLoop=1;jettySize=auto;html=1;" edge="1" parent="1" source="3vwzYwzwPNA0wWS0ZiA6-2" target="3vwzYwzwPNA0wWS0ZiA6-4">
          <mxGeometry relative="1" as="geometry" />
        </mxCell>
        <mxCell id="3vwzYwzwPNA0wWS0ZiA6-9" style="edgeStyle=orthogonalEdgeStyle;rounded=0;orthogonalLoop=1;jettySize=auto;html=1;exitX=0.5;exitY=1;exitDx=0;exitDy=0;" edge="1" parent="1" source="3vwzYwzwPNA0wWS0ZiA6-2" target="3vwzYwzwPNA0wWS0ZiA6-8">
          <mxGeometry relative="1" as="geometry" />
        </mxCell>
        <mxCell id="3vwzYwzwPNA0wWS0ZiA6-2" value="" style="triangle;whiteSpace=wrap;html=1;" vertex="1" parent="1">
          <mxGeometry x="270" y="280" width="60" height="80" as="geometry" />
        </mxCell>
        <mxCell id="3vwzYwzwPNA0wWS0ZiA6-7" value="" style="edgeStyle=orthogonalEdgeStyle;rounded=0;orthogonalLoop=1;jettySize=auto;html=1;" edge="1" parent="1" source="3vwzYwzwPNA0wWS0ZiA6-4" target="3vwzYwzwPNA0wWS0ZiA6-6">
          <mxGeometry relative="1" as="geometry" />
        </mxCell>
        <mxCell id="3vwzYwzwPNA0wWS0ZiA6-4" value="" style="whiteSpace=wrap;html=1;" vertex="1" parent="1">
          <mxGeometry x="380" y="290" width="120" height="60" as="geometry" />
        </mxCell>
        <mxCell id="3vwzYwzwPNA0wWS0ZiA6-6" value="" style="rhombus;whiteSpace=wrap;html=1;" vertex="1" parent="1">
          <mxGeometry x="600" y="280" width="80" height="80" as="geometry" />
        </mxCell>
        <mxCell id="3vwzYwzwPNA0wWS0ZiA6-8" value="" style="ellipse;shape=cloud;whiteSpace=wrap;html=1;" vertex="1" parent="1">
          <mxGeometry x="240" y="460" width="120" height="80" as="geometry" />
        </mxCell>
      </root>
    </mxGraphModel>
  </diagram>
</mxfile>
